<svg id="svg" version="1.1" width="60" height="60" viewBox="0 0 400 293.1818181818182" xmlns="http://www.w3.org/2000/svg" xmlns:xlink="http://www.w3.org/1999/xlink" ><g id="svgg"><path id="path0" d="M204.545 62.757 C 204.430 62.944,205.330 63.050,207.038 63.050 C 208.746 63.050,209.647 62.944,209.531 62.757 C 209.431 62.595,208.309 62.463,207.038 62.463 C 205.767 62.463,204.645 62.595,204.545 62.757 M222.685 96.921 C 222.684 98.372,222.733 99.003,222.795 98.323 C 222.856 97.642,222.857 96.454,222.797 95.683 C 222.736 94.912,222.686 95.469,222.685 96.921 M223.561 116.276 C 223.562 117.566,223.614 118.057,223.676 117.368 C 223.737 116.678,223.737 115.622,223.674 115.022 C 223.611 114.421,223.560 114.985,223.561 116.276 M245.161 131.370 C 245.161 131.785,245.907 132.229,246.249 132.018 C 246.463 131.885,246.327 131.690,245.872 131.476 C 245.481 131.291,245.161 131.244,245.161 131.370 M135.845 142.815 C 135.845 143.380,135.906 143.611,135.979 143.328 C 136.053 143.046,136.053 142.584,135.979 142.302 C 135.906 142.020,135.845 142.251,135.845 142.815 M266.573 151.229 C 266.577 152.248,266.657 152.517,266.862 152.199 C 267.235 151.622,267.235 150.230,266.862 150.000 C 266.682 149.889,266.571 150.363,266.573 151.229 M168.333 218.548 C 168.343 219.385,168.906 219.814,168.910 218.988 C 168.913 218.545,168.783 218.182,168.622 218.182 C 168.460 218.182,168.330 218.347,168.333 218.548 M183.138 229.032 C 182.772 229.189,183.986 229.281,186.364 229.276 C 188.700 229.270,189.892 229.176,189.443 229.032 C 188.457 228.717,183.872 228.717,183.138 229.032 " stroke="none" fill="#ffffff" fill-rule="evenodd"></path><path id="path1" d="" stroke="none" fill="#ff5500" fill-rule="evenodd"></path><path id="path2" d="" stroke="none" fill="#ff9900" fill-rule="evenodd"></path><path id="path3" d="M204.399 63.597 C 202.791 63.790,199.120 65.281,199.120 65.741 C 199.120 65.874,198.949 65.982,198.740 65.982 C 198.531 65.982,198.102 66.180,197.787 66.421 C 197.472 66.663,196.686 67.258,196.041 67.744 C 190.919 71.602,178.273 84.555,171.851 92.522 C 170.811 93.812,169.889 94.934,169.803 95.015 C 169.717 95.095,168.863 96.151,167.904 97.361 C 166.946 98.570,166.022 99.693,165.852 99.856 C 165.682 100.019,165.084 100.745,164.524 101.469 C 162.981 103.464,162.961 103.489,162.097 104.425 C 161.653 104.906,161.290 105.410,161.290 105.546 C 161.290 105.682,161.082 105.966,160.827 106.178 C 160.572 106.390,158.979 108.352,157.288 110.539 C 155.596 112.727,153.918 114.846,153.558 115.249 C 153.198 115.652,152.449 116.642,151.892 117.449 C 151.335 118.255,150.649 119.128,150.367 119.389 C 150.084 119.650,149.853 119.993,149.853 120.150 C 149.853 120.308,149.589 120.676,149.267 120.968 C 148.944 121.260,148.680 121.676,148.680 121.893 C 148.680 122.110,148.577 122.287,148.450 122.287 C 148.324 122.287,147.971 122.716,147.666 123.240 C 147.361 123.765,147.036 124.260,146.943 124.340 C 146.850 124.421,146.247 125.279,145.603 126.246 C 144.958 127.214,144.265 128.180,144.063 128.393 C 143.861 128.607,143.695 128.969,143.695 129.200 C 143.695 129.430,143.593 129.619,143.469 129.619 C 143.345 129.619,142.918 130.213,142.522 130.938 C 142.126 131.664,141.732 132.260,141.648 132.261 C 141.564 132.263,141.243 132.791,140.935 133.434 C 140.627 134.078,140.264 134.604,140.129 134.604 C 139.993 134.604,139.883 134.859,139.883 135.170 C 139.883 135.481,139.685 135.933,139.443 136.175 C 139.201 136.417,139.003 136.690,139.003 136.781 C 139.003 137.161,137.968 139.296,137.784 139.296 C 137.674 139.296,137.492 139.725,137.379 140.249 C 137.267 140.773,137.037 141.375,136.867 141.585 C 136.342 142.236,136.226 146.478,136.714 147.175 C 137.520 148.326,140.161 151.026,140.480 151.026 C 140.657 151.026,141.223 151.347,141.737 151.740 C 142.666 152.448,145.662 154.085,150.440 156.493 C 151.811 157.184,153.065 157.855,153.226 157.984 C 153.387 158.113,154.080 158.468,154.765 158.773 C 155.451 159.077,156.012 159.461,156.012 159.624 C 156.012 159.788,156.090 159.844,156.186 159.748 C 156.281 159.652,157.370 160.111,158.605 160.767 C 159.840 161.424,161.839 162.480,163.047 163.114 C 164.255 163.749,165.410 164.406,165.613 164.575 C 165.816 164.743,165.982 164.790,165.982 164.679 C 165.982 164.567,166.345 164.728,166.789 165.036 C 167.232 165.344,167.991 165.794,168.475 166.036 C 168.959 166.277,170.543 167.108,171.994 167.881 C 173.446 168.654,175.622 169.807,176.830 170.443 C 178.038 171.079,179.182 171.729,179.373 171.887 C 179.680 172.141,181.251 172.986,184.805 174.808 C 185.400 175.113,185.969 175.495,186.069 175.658 C 186.169 175.820,186.508 175.953,186.821 175.953 C 187.134 175.953,187.390 176.070,187.390 176.212 C 187.390 176.355,187.621 176.550,187.903 176.647 C 188.482 176.846,192.092 178.869,192.707 179.339 C 192.928 179.508,193.834 180.012,194.721 180.458 C 196.448 181.326,197.418 181.874,197.654 182.114 C 197.735 182.196,198.303 182.526,198.916 182.847 L 200.032 183.431 199.209 184.104 C 198.757 184.474,198.079 185.035,197.702 185.351 C 197.326 185.666,196.917 185.924,196.795 185.924 C 196.672 185.924,196.331 186.190,196.037 186.514 C 195.743 186.839,194.806 187.567,193.955 188.133 C 193.103 188.698,192.235 189.330,192.024 189.537 C 191.608 189.948,185.660 194.428,185.531 194.428 C 184.902 194.428,174.780 204.631,174.780 205.265 C 174.780 205.394,174.568 205.676,174.310 205.890 C 174.051 206.105,173.721 206.550,173.577 206.879 C 173.301 207.511,172.681 208.550,172.434 208.798 C 172.156 209.076,171.552 210.119,171.246 210.850 C 170.436 212.786,170.223 213.196,170.028 213.196 C 169.790 213.196,169.754 213.738,169.743 217.449 C 169.730 221.609,169.792 221.792,172.046 224.215 C 173.149 225.401,176.648 227.269,177.769 227.271 C 178.203 227.272,178.639 227.405,178.739 227.566 C 178.839 227.727,179.297 227.859,179.758 227.859 C 180.219 227.859,180.646 228.008,180.707 228.191 C 180.782 228.415,182.251 228.533,185.276 228.557 C 187.729 228.577,189.735 228.691,189.736 228.812 C 189.736 228.933,189.876 229.032,190.047 229.032 C 190.217 229.032,190.283 228.912,190.191 228.764 C 189.937 228.353,190.565 228.251,192.127 228.452 C 193.201 228.589,193.548 228.539,193.548 228.247 C 193.548 227.978,193.992 227.859,194.997 227.859 C 195.794 227.859,196.517 227.745,196.604 227.604 C 196.691 227.464,197.950 227.256,199.403 227.143 C 200.856 227.029,202.114 226.824,202.199 226.688 C 202.283 226.551,203.242 226.354,204.329 226.250 C 205.416 226.147,206.569 225.946,206.891 225.805 C 207.786 225.412,210.278 224.863,211.518 224.785 C 212.128 224.746,212.710 224.631,212.814 224.528 C 212.917 224.425,213.301 224.340,213.668 224.340 C 214.035 224.340,214.407 224.223,214.496 224.079 C 214.674 223.792,216.417 223.450,217.649 223.460 C 218.082 223.464,218.519 223.333,218.620 223.170 C 218.720 223.007,219.117 222.874,219.501 222.874 C 219.886 222.874,220.274 222.755,220.363 222.610 C 220.453 222.464,221.319 222.253,222.287 222.141 C 223.255 222.028,224.047 221.827,224.047 221.693 C 224.047 221.559,224.806 221.358,225.733 221.245 C 226.661 221.133,227.551 220.962,227.713 220.864 C 228.285 220.520,230.947 219.667,231.480 219.658 C 231.777 219.652,232.437 219.431,232.946 219.166 C 234.744 218.230,234.924 218.164,235.203 218.336 C 235.357 218.431,235.484 218.402,235.484 218.271 C 235.484 217.967,236.817 217.373,238.052 217.126 C 238.575 217.021,239.003 216.822,239.003 216.682 C 239.003 216.543,239.531 216.345,240.176 216.242 C 240.821 216.138,241.349 215.969,241.349 215.865 C 241.349 215.761,241.844 215.421,242.449 215.110 C 244.158 214.231,245.956 212.695,246.461 211.682 C 246.969 210.664,247.090 207.918,246.628 207.918 C 246.466 207.918,246.334 207.725,246.334 207.489 C 246.334 206.674,243.303 203.864,241.862 203.343 C 241.580 203.241,241.349 203.064,241.349 202.950 C 241.349 202.836,240.755 202.447,240.029 202.084 C 239.304 201.722,238.710 201.317,238.710 201.184 C 238.710 201.052,238.410 200.868,238.044 200.776 C 237.678 200.684,237.082 200.333,236.721 199.996 C 236.359 199.659,235.933 199.464,235.773 199.562 C 235.614 199.661,235.484 199.622,235.484 199.477 C 235.484 199.332,234.989 198.961,234.384 198.653 C 233.779 198.346,233.218 198.013,233.138 197.913 C 233.057 197.814,232.463 197.450,231.818 197.104 C 231.173 196.758,230.381 196.314,230.059 196.117 C 229.736 195.920,228.812 195.365,228.006 194.883 C 227.199 194.402,226.474 193.922,226.393 193.817 C 226.312 193.713,225.927 193.528,225.536 193.405 C 224.066 192.946,223.025 190.821,224.446 191.182 C 224.574 191.214,224.914 190.968,225.203 190.635 C 225.492 190.302,225.869 190.029,226.040 190.029 C 226.211 190.029,226.525 189.864,226.739 189.663 C 227.522 188.922,233.895 184.751,234.244 184.751 C 234.442 184.751,234.604 184.628,234.604 184.478 C 234.604 184.183,237.111 182.405,237.527 182.405 C 237.667 182.405,237.825 182.306,237.879 182.185 C 237.933 182.064,238.768 181.442,239.736 180.802 C 240.704 180.163,241.840 179.371,242.261 179.043 C 242.682 178.714,243.276 178.279,243.581 178.076 C 247.406 175.524,252.307 171.723,253.643 170.273 C 254.035 169.849,254.496 169.498,254.670 169.494 C 254.943 169.487,260.401 163.997,261.816 162.305 C 262.092 161.977,262.839 160.657,263.478 159.373 C 264.117 158.089,264.744 156.994,264.871 156.940 C 264.998 156.887,265.103 156.557,265.104 156.207 C 265.105 155.858,265.303 155.194,265.544 154.732 C 265.785 154.270,265.982 153.577,265.982 153.192 C 265.982 152.807,266.114 152.493,266.276 152.493 C 266.437 152.493,266.569 151.833,266.569 151.026 C 266.569 150.220,266.437 149.560,266.276 149.560 C 266.114 149.560,265.982 149.238,265.982 148.844 C 265.982 148.451,265.867 148.057,265.727 147.971 C 265.587 147.884,265.392 147.412,265.294 146.923 C 265.079 145.847,263.479 143.289,262.268 142.082 C 260.383 140.205,256.289 137.243,255.578 137.243 C 255.372 137.243,255.039 137.045,254.839 136.804 C 254.638 136.562,254.292 136.364,254.070 136.364 C 253.847 136.364,253.666 136.242,253.666 136.094 C 253.666 135.945,253.270 135.737,252.786 135.630 C 252.302 135.524,251.906 135.316,251.906 135.167 C 251.906 135.019,251.767 134.897,251.597 134.897 C 251.271 134.897,249.519 134.162,247.067 132.995 C 246.261 132.611,244.975 132.058,244.209 131.765 C 243.444 131.471,242.817 131.133,242.816 131.012 C 242.816 130.891,242.452 130.791,242.009 130.790 C 241.565 130.789,240.834 130.596,240.384 130.361 C 239.933 130.126,239.107 129.848,238.547 129.743 C 237.988 129.638,237.458 129.435,237.369 129.292 C 237.281 129.149,236.953 129.032,236.640 129.032 C 236.327 129.032,236.070 128.895,236.070 128.726 C 236.070 128.558,235.905 128.447,235.704 128.481 C 235.197 128.564,233.655 128.133,233.211 127.783 C 233.010 127.624,232.845 127.603,232.845 127.735 C 232.845 127.868,232.686 127.818,232.493 127.625 C 232.299 127.431,231.918 127.273,231.646 127.273 C 231.375 127.273,230.774 127.076,230.312 126.835 C 229.850 126.594,229.241 126.396,228.959 126.395 C 228.677 126.394,228.446 126.261,228.446 126.100 C 228.446 125.938,228.083 125.806,227.639 125.805 C 227.196 125.804,226.464 125.611,226.014 125.376 C 225.564 125.141,224.737 124.863,224.178 124.758 C 223.123 124.560,222.512 124.021,223.115 123.820 C 223.318 123.752,223.460 123.104,223.460 122.246 C 223.460 121.348,223.348 120.856,223.167 120.968 C 222.978 121.085,222.874 119.847,222.874 117.466 C 222.874 115.206,222.987 113.783,223.167 113.783 C 223.542 113.783,223.550 112.524,223.178 112.151 C 223.022 111.996,222.862 109.914,222.822 107.526 C 222.782 105.137,222.635 103.113,222.496 103.027 C 222.358 102.941,222.253 101.796,222.264 100.482 C 222.275 99.169,222.143 96.906,221.972 95.455 C 221.801 94.003,221.615 91.716,221.559 90.372 C 221.503 89.028,221.380 87.852,221.286 87.757 C 221.192 87.663,221.114 87.087,221.114 86.479 C 221.114 85.870,221.000 85.301,220.860 85.215 C 220.542 85.018,220.170 82.662,220.197 81.012 C 220.208 80.326,220.089 79.765,219.933 79.765 C 219.776 79.765,219.648 79.443,219.648 79.050 C 219.648 78.656,219.526 78.259,219.378 78.167 C 219.229 78.075,219.016 77.143,218.904 76.097 C 218.792 75.050,218.598 74.194,218.474 74.194 C 218.349 74.194,218.163 73.746,218.061 73.200 C 217.573 70.602,214.922 66.623,212.567 64.956 C 210.749 63.669,207.828 63.183,204.399 63.597 M202.900 91.346 C 203.240 92.028,203.519 93.133,203.519 93.800 C 203.519 94.468,203.630 95.015,203.766 95.015 C 204.128 95.015,204.784 100.290,204.824 103.519 C 204.843 105.051,205.004 106.558,205.181 106.867 C 205.358 107.176,205.434 107.942,205.350 108.569 C 205.266 109.197,205.337 110.000,205.508 110.354 C 205.679 110.708,205.902 112.185,206.003 113.636 C 206.104 115.088,206.236 116.967,206.297 117.812 C 206.408 119.363,206.088 119.988,205.488 119.388 C 205.308 119.208,204.858 119.062,204.487 119.062 C 204.116 119.062,203.812 118.949,203.812 118.810 C 203.812 118.672,202.856 118.471,201.686 118.363 C 200.517 118.254,199.516 118.037,199.462 117.881 C 199.409 117.724,199.046 117.595,198.656 117.595 C 198.266 117.595,197.947 117.493,197.947 117.368 C 197.947 117.242,197.386 117.126,196.701 117.108 C 195.285 117.073,192.010 116.412,191.789 116.118 C 191.708 116.010,190.389 115.830,188.856 115.718 C 187.324 115.605,186.026 115.388,185.973 115.235 C 185.919 115.081,185.358 114.956,184.726 114.956 C 184.095 114.956,183.578 114.857,183.578 114.736 C 183.578 114.615,182.886 114.534,182.041 114.555 C 181.195 114.577,180.172 114.461,179.768 114.298 C 179.363 114.135,178.405 114.028,177.639 114.061 C 176.028 114.129,175.918 113.864,177.053 112.641 C 182.631 106.629,196.508 92.504,198.722 90.583 C 199.939 89.528,202.198 89.941,202.900 91.346 M169.501 121.977 C 169.501 122.290,169.639 122.631,169.807 122.735 C 169.975 122.838,170.032 123.176,169.934 123.485 C 169.835 123.794,169.864 124.047,169.997 124.047 C 170.129 124.047,170.540 124.674,170.909 125.440 C 171.278 126.206,171.908 127.361,172.310 128.006 C 172.712 128.651,173.232 129.599,173.466 130.112 C 173.700 130.625,174.011 131.119,174.157 131.209 C 174.302 131.299,174.508 131.715,174.613 132.134 C 174.718 132.552,175.067 133.178,175.390 133.524 C 175.712 133.870,176.051 134.452,176.143 134.818 C 176.235 135.184,176.408 135.484,176.527 135.484 C 176.646 135.484,176.982 136.012,177.273 136.657 C 177.564 137.302,177.901 137.830,178.022 137.830 C 178.143 137.830,178.389 138.193,178.569 138.636 C 178.882 139.407,180.586 142.081,182.625 144.999 C 183.149 145.750,183.578 146.478,183.578 146.618 C 183.578 146.758,183.677 146.916,183.798 146.970 C 184.132 147.118,185.337 148.908,185.337 149.255 C 185.337 149.423,185.460 149.560,185.611 149.560 C 185.761 149.560,185.970 149.830,186.075 150.160 C 186.179 150.490,186.533 151.051,186.861 151.406 C 187.189 151.762,188.452 153.438,189.668 155.132 C 190.883 156.826,192.055 158.317,192.273 158.446 C 192.491 158.575,192.669 158.845,192.669 159.046 C 192.669 159.247,193.196 159.927,193.842 160.557 C 194.487 161.187,195.015 161.786,195.015 161.887 C 195.015 162.129,198.868 165.982,199.110 165.982 C 199.211 165.982,199.810 166.510,200.440 167.155 C 201.070 167.801,201.699 168.328,201.839 168.328 C 201.978 168.328,202.512 168.648,203.025 169.039 C 203.539 169.429,204.311 169.837,204.741 169.944 C 205.171 170.052,205.759 170.363,206.046 170.636 C 206.831 171.381,211.760 171.155,213.196 170.308 C 214.687 169.429,216.049 168.076,216.700 166.825 C 217.014 166.224,217.403 165.492,217.565 165.197 C 218.174 164.094,218.723 162.573,218.909 161.474 C 219.015 160.849,219.209 160.124,219.341 159.861 C 219.973 158.599,220.213 157.857,220.208 157.185 C 220.199 156.126,220.518 154.500,220.882 153.755 C 221.055 153.401,221.120 152.644,221.028 152.073 C 220.922 151.422,220.989 150.951,221.207 150.810 C 221.428 150.668,221.572 149.577,221.603 147.801 C 221.664 144.358,222.044 141.485,222.434 141.527 C 223.137 141.604,224.047 142.026,224.047 142.276 C 224.047 142.425,224.212 142.528,224.413 142.503 C 224.965 142.436,226.100 142.851,226.100 143.119 C 226.100 143.249,226.529 143.448,227.053 143.562 C 227.577 143.676,228.072 143.860,228.152 143.972 C 228.233 144.084,228.925 144.475,229.690 144.840 C 230.456 145.206,231.156 145.626,231.247 145.773 C 231.338 145.921,231.660 146.041,231.961 146.041 C 232.263 146.041,232.707 146.239,232.949 146.481 C 233.191 146.723,233.531 146.921,233.703 146.921 C 233.876 146.921,234.018 147.053,234.018 147.214 C 234.018 147.375,234.206 147.507,234.437 147.507 C 234.667 147.507,235.032 147.672,235.247 147.874 C 235.463 148.076,236.165 148.504,236.808 148.825 C 242.981 151.915,242.413 155.122,234.759 160.387 C 233.955 160.939,233.163 161.508,232.998 161.651 C 232.833 161.793,231.576 162.691,230.205 163.646 C 228.834 164.601,227.553 165.517,227.358 165.682 C 227.164 165.847,226.887 165.982,226.744 165.982 C 226.601 165.982,226.245 166.246,225.953 166.569 C 225.661 166.891,225.245 167.155,225.028 167.155 C 224.811 167.155,224.633 167.263,224.633 167.395 C 224.633 167.526,224.090 167.955,223.426 168.348 C 222.762 168.740,221.919 169.260,221.552 169.501 C 221.185 169.743,220.045 170.460,219.020 171.095 C 217.994 171.729,216.826 172.495,216.422 172.798 C 216.019 173.101,214.831 173.897,213.783 174.567 C 211.074 176.299,210.790 176.472,209.971 176.889 C 209.567 177.093,209.172 177.336,209.091 177.429 C 208.854 177.700,206.144 179.472,205.966 179.472 C 205.876 179.472,205.411 179.802,204.932 180.205 C 203.789 181.167,203.568 181.141,201.381 179.803 C 200.361 179.179,199.260 178.583,198.935 178.480 C 198.610 178.377,198.085 178.063,197.770 177.783 C 197.454 177.502,196.286 176.811,195.174 176.246 C 194.062 175.682,193.009 175.088,192.833 174.927 C 192.657 174.765,191.987 174.373,191.344 174.055 C 190.702 173.736,189.780 173.191,189.296 172.842 C 188.812 172.494,188.131 172.122,187.783 172.017 C 187.435 171.911,186.990 171.632,186.794 171.396 C 186.598 171.161,186.191 170.968,185.888 170.968 C 185.585 170.968,185.337 170.859,185.337 170.726 C 185.337 170.594,184.710 170.176,183.944 169.797 C 183.178 169.419,182.485 169.031,182.405 168.936 C 182.324 168.841,181.763 168.503,181.158 168.186 C 180.554 167.868,180.059 167.517,180.059 167.405 C 180.059 167.293,179.664 167.115,179.182 167.010 C 178.700 166.904,178.226 166.687,178.127 166.528 C 178.029 166.369,177.665 166.115,177.318 165.962 C 176.970 165.809,176.026 165.296,175.220 164.821 C 174.413 164.346,173.193 163.664,172.507 163.305 C 171.822 162.946,171.261 162.555,171.261 162.435 C 171.261 162.315,170.865 162.130,170.381 162.023 C 169.897 161.917,169.501 161.739,169.501 161.627 C 169.501 161.515,169.007 161.163,168.402 160.845 C 167.797 160.526,167.128 160.100,166.915 159.898 C 166.701 159.696,166.348 159.531,166.129 159.531 C 165.910 159.531,165.557 159.366,165.344 159.164 C 165.130 158.962,164.461 158.536,163.856 158.217 C 163.251 157.899,162.757 157.536,162.757 157.411 C 162.757 157.287,162.618 157.185,162.448 157.185 C 162.129 157.185,154.806 152.818,154.545 152.473 C 154.465 152.366,154.069 152.176,153.666 152.050 C 153.262 151.925,152.702 151.557,152.419 151.233 C 152.137 150.909,151.906 150.741,151.906 150.861 C 151.906 150.981,151.515 150.770,151.036 150.393 C 150.557 150.015,149.647 149.311,149.013 148.827 C 147.285 147.509,146.044 144.575,147.214 144.575 C 147.375 144.575,147.486 144.476,147.460 144.355 C 147.346 143.826,148.115 142.588,149.161 141.615 C 149.784 141.036,151.242 139.551,152.403 138.316 C 153.563 137.081,154.651 136.070,154.822 136.070 C 154.992 136.070,155.132 135.898,155.132 135.686 C 155.132 135.475,156.287 134.159,157.698 132.762 C 159.109 131.365,162.177 128.249,164.516 125.837 C 168.745 121.475,169.501 120.890,169.501 121.977 M177.448 121.911 C 177.997 122.188,178.578 122.423,178.739 122.434 C 178.900 122.445,179.692 122.762,180.499 123.138 C 181.305 123.515,182.361 123.988,182.845 124.188 C 183.328 124.389,184.452 124.902,185.341 125.327 C 186.231 125.752,187.055 126.100,187.172 126.100 C 187.583 126.100,189.736 127.120,189.736 127.314 C 189.736 127.423,190.000 127.442,190.323 127.358 C 190.650 127.272,190.909 127.349,190.909 127.532 C 190.909 127.712,191.054 127.859,191.231 127.859 C 191.409 127.859,192.035 128.071,192.624 128.331 C 197.139 130.320,197.577 130.499,197.918 130.499 C 198.095 130.499,198.240 130.630,198.240 130.792 C 198.240 130.953,198.438 131.085,198.678 131.085 C 199.310 131.085,201.466 132.059,201.466 132.345 C 201.466 132.477,201.581 132.515,201.722 132.428 C 201.862 132.341,202.621 132.597,203.408 132.996 C 204.195 133.395,204.993 133.722,205.182 133.723 C 206.220 133.727,207.337 134.760,207.165 135.557 C 207.066 136.018,207.118 136.364,207.287 136.364 C 207.449 136.364,207.654 137.452,207.742 138.783 C 207.830 140.114,207.983 142.099,208.082 143.194 C 208.189 144.377,208.143 145.330,207.968 145.541 C 207.766 145.784,207.804 146.075,208.089 146.465 C 208.637 147.214,208.677 152.070,208.138 152.322 C 207.845 152.458,207.845 152.527,208.138 152.664 C 208.407 152.789,208.504 154.004,208.504 157.248 L 208.504 161.661 207.457 162.649 C 206.454 163.594,204.985 163.997,204.985 163.326 C 204.985 163.155,204.851 163.098,204.686 163.200 C 204.305 163.436,202.346 162.800,202.346 162.441 C 202.346 162.292,202.167 162.170,201.949 162.170 C 201.731 162.170,201.220 161.873,200.813 161.510 C 200.407 161.147,199.694 160.521,199.228 160.117 C 198.315 159.326,192.804 153.000,192.082 151.914 C 191.840 151.550,191.431 150.970,191.174 150.626 C 189.852 148.861,187.390 145.132,187.390 144.895 C 187.390 144.746,187.291 144.580,187.170 144.526 C 186.948 144.427,185.044 141.725,185.044 141.508 C 185.044 141.443,184.525 140.609,183.891 139.654 C 183.257 138.700,182.252 137.008,181.658 135.895 C 181.063 134.782,180.461 133.746,180.318 133.592 C 180.175 133.439,180.059 133.076,180.059 132.786 C 180.059 132.496,179.956 132.258,179.830 132.258 C 179.604 132.258,178.814 130.627,178.764 130.059 C 178.750 129.897,178.508 129.510,178.226 129.197 C 177.944 128.884,177.708 128.488,177.703 128.317 C 177.697 128.146,177.438 127.478,177.126 126.833 C 176.814 126.188,176.555 125.371,176.550 125.017 C 176.544 124.664,176.408 124.293,176.246 124.194 C 175.891 123.974,175.850 121.408,176.201 121.408 C 176.338 121.408,176.899 121.634,177.448 121.911 M220.739 195.674 C 221.510 196.199,222.185 196.727,222.239 196.848 C 222.292 196.968,222.503 197.067,222.708 197.067 C 222.912 197.067,223.626 197.463,224.294 197.947 C 224.962 198.431,225.569 198.827,225.643 198.827 C 225.885 198.827,228.590 200.703,228.690 200.941 C 228.744 201.069,228.914 201.173,229.069 201.173 C 229.318 201.173,230.571 201.977,231.582 202.786 C 231.784 202.947,232.491 203.475,233.154 203.959 C 234.563 204.987,237.243 207.594,237.243 207.936 C 237.243 208.370,235.941 208.610,233.973 208.539 C 232.835 208.497,231.942 208.597,231.830 208.779 C 231.581 209.181,228.152 209.192,228.152 208.791 C 228.152 208.622,227.865 208.673,227.493 208.910 C 226.383 209.614,223.794 209.832,223.568 209.240 C 223.421 208.859,223.326 208.834,223.144 209.129 C 222.976 209.400,222.262 209.485,220.661 209.426 C 219.120 209.368,218.475 209.441,218.609 209.656 C 218.739 209.868,218.173 209.971,216.879 209.971 C 215.539 209.971,214.955 209.860,214.952 209.604 C 214.948 209.350,214.881 209.337,214.732 209.560 C 214.280 210.236,213.110 210.590,211.497 210.539 C 210.577 210.511,209.184 210.588,208.402 210.712 C 207.318 210.884,206.912 210.841,206.694 210.528 C 206.473 210.212,206.373 210.202,206.258 210.484 C 206.157 210.733,205.374 210.850,203.805 210.850 C 202.491 210.850,201.418 210.985,201.308 211.163 C 201.196 211.344,200.324 211.447,199.238 211.407 C 198.205 211.370,197.273 211.427,197.165 211.535 C 196.793 211.906,196.481 211.728,196.481 211.144 C 196.481 210.821,196.580 210.557,196.701 210.556 C 196.822 210.555,197.406 210.126,197.999 209.603 C 198.591 209.079,199.556 208.321,200.142 207.918 C 200.728 207.515,201.365 207.051,201.557 206.887 C 202.642 205.962,204.364 204.692,204.532 204.692 C 204.780 204.692,207.152 202.859,207.283 202.566 C 207.336 202.445,207.507 202.346,207.661 202.346 C 207.940 202.346,209.474 201.335,210.176 200.687 C 210.379 200.501,210.943 200.172,211.430 199.956 C 211.918 199.740,212.317 199.461,212.317 199.335 C 212.317 199.209,212.614 198.978,212.977 198.822 C 213.339 198.665,214.824 197.688,216.276 196.649 C 219.407 194.409,219.007 194.496,220.739 195.674 " stroke="none" fill="#eac102" fill-rule="evenodd"></path><path id="path4" d="M202.053 63.291 C 201.203 63.524,198.749 64.787,198.534 65.103 C 198.453 65.220,198.090 65.410,197.727 65.523 C 197.364 65.636,197.067 65.852,197.067 66.002 C 197.067 66.153,196.870 66.276,196.628 66.276 C 196.386 66.276,196.188 66.412,196.188 66.578 C 196.188 66.744,195.957 66.964,195.674 67.066 C 195.392 67.167,194.963 67.428,194.721 67.645 C 188.557 73.169,174.780 86.994,174.780 87.655 C 174.780 87.781,174.285 88.402,173.680 89.037 C 172.588 90.183,171.024 92.110,170.599 92.833 C 170.477 93.040,169.850 93.775,169.206 94.466 C 168.562 95.157,168.035 95.927,168.035 96.178 C 168.035 96.430,167.749 96.765,167.399 96.925 C 167.050 97.084,166.621 97.478,166.446 97.801 C 166.272 98.123,165.964 98.493,165.762 98.622 C 165.561 98.751,165.396 99.113,165.396 99.428 C 165.396 99.743,165.284 100.000,165.148 100.000 C 164.780 100.000,163.343 101.294,163.343 101.625 C 163.343 101.783,163.079 102.077,162.757 102.278 C 162.434 102.479,162.170 102.775,162.170 102.935 C 162.170 103.095,161.939 103.470,161.657 103.768 C 161.375 104.067,160.946 104.565,160.704 104.876 C 159.578 106.325,157.894 108.395,157.557 108.745 C 157.352 108.958,157.185 109.224,157.185 109.335 C 157.185 109.446,156.888 109.867,156.525 110.270 C 156.162 110.673,155.239 111.794,154.473 112.760 C 153.707 113.726,152.915 114.709,152.713 114.945 C 151.705 116.123,150.733 117.638,150.733 118.033 C 150.733 118.276,150.535 118.475,150.293 118.475 C 150.051 118.475,149.853 118.613,149.853 118.782 C 149.853 118.951,149.523 119.395,149.120 119.769 C 148.717 120.143,148.387 120.578,148.387 120.737 C 148.387 120.895,148.156 121.305,147.874 121.648 C 147.592 121.992,147.031 122.741,146.628 123.314 C 146.224 123.887,145.663 124.636,145.381 124.979 C 145.099 125.322,144.868 125.720,144.868 125.864 C 144.868 126.008,144.538 126.481,144.135 126.916 C 143.732 127.351,143.402 127.849,143.402 128.023 C 143.402 128.198,143.026 128.761,142.567 129.275 C 142.107 129.790,141.481 130.702,141.174 131.303 C 140.867 131.904,140.451 132.572,140.249 132.788 C 140.048 133.003,139.883 133.434,139.883 133.745 C 139.883 134.056,139.753 134.311,139.595 134.311 C 139.437 134.311,139.225 134.641,139.123 135.044 C 139.022 135.447,138.822 135.777,138.678 135.777 C 138.534 135.777,138.416 136.032,138.416 136.343 C 138.416 136.654,138.251 137.088,138.050 137.307 C 137.401 138.014,136.925 139.019,137.104 139.308 C 137.200 139.463,137.170 139.589,137.039 139.589 C 136.286 139.589,135.605 144.018,135.954 146.650 C 136.189 148.419,140.005 152.493,141.428 152.493 C 141.569 152.493,141.868 152.658,142.093 152.859 C 143.092 153.755,143.397 153.947,144.110 154.125 C 144.527 154.230,144.868 154.423,144.868 154.554 C 144.868 154.685,145.264 154.879,145.748 154.985 C 146.232 155.092,146.628 155.268,146.628 155.377 C 146.628 155.486,147.254 155.875,148.021 156.242 C 148.787 156.609,149.611 157.020,149.853 157.155 C 150.708 157.632,152.665 158.648,154.839 159.743 C 156.048 160.352,157.105 160.939,157.188 161.047 C 157.270 161.155,157.699 161.335,158.141 161.445 C 158.583 161.556,158.944 161.754,158.944 161.885 C 158.944 162.016,159.340 162.210,159.824 162.317 C 160.308 162.423,160.704 162.629,160.704 162.774 C 160.704 162.920,161.034 163.121,161.437 163.223 C 161.840 163.324,162.170 163.524,162.170 163.668 C 162.170 163.812,162.425 163.930,162.736 163.930 C 163.047 163.930,163.499 164.128,163.741 164.370 C 163.983 164.611,164.292 164.809,164.427 164.809 C 164.562 164.809,165.133 165.121,165.694 165.501 C 166.256 165.882,167.039 166.295,167.435 166.420 C 167.831 166.544,168.335 166.827,168.556 167.047 C 168.776 167.268,169.195 167.449,169.487 167.449 C 169.778 167.449,170.180 167.647,170.381 167.889 C 170.582 168.130,170.917 168.328,171.126 168.328 C 171.335 168.328,171.549 168.427,171.603 168.548 C 171.657 168.669,172.589 169.206,173.675 169.741 C 174.761 170.276,175.725 170.837,175.818 170.987 C 175.912 171.138,176.190 171.261,176.437 171.261 C 176.685 171.261,177.222 171.525,177.633 171.848 C 178.043 172.170,178.624 172.434,178.925 172.434 C 179.226 172.434,179.472 172.563,179.472 172.720 C 179.472 172.877,180.033 173.280,180.718 173.616 C 181.404 173.951,182.589 174.581,183.351 175.016 C 186.183 176.630,187.748 177.419,188.119 177.419 C 188.329 177.419,188.568 177.597,188.651 177.813 C 188.734 178.030,189.243 178.431,189.782 178.705 C 190.321 178.979,191.224 179.479,191.789 179.816 C 192.353 180.153,193.937 181.017,195.308 181.736 C 198.492 183.405,198.632 183.521,198.107 184.047 C 197.881 184.273,197.607 184.457,197.497 184.457 C 197.388 184.457,196.941 184.754,196.504 185.117 C 196.068 185.480,195.341 186.041,194.890 186.364 C 194.439 186.686,193.920 187.082,193.736 187.244 C 193.552 187.405,192.908 187.867,192.304 188.270 C 191.700 188.673,191.205 189.102,191.204 189.223 C 191.203 189.344,191.067 189.443,190.902 189.443 C 190.576 189.443,184.959 193.818,184.800 194.196 C 184.746 194.324,184.533 194.428,184.327 194.428 C 184.122 194.428,183.705 194.758,183.403 195.161 C 183.100 195.565,182.685 195.894,182.482 195.894 C 182.278 195.894,182.111 196.092,182.111 196.334 C 182.111 196.576,181.969 196.774,181.796 196.774 C 181.369 196.774,177.126 200.998,177.126 201.423 C 177.126 201.608,176.961 201.760,176.760 201.760 C 176.558 201.761,176.129 202.156,175.806 202.639 C 175.484 203.122,175.121 203.518,175.000 203.518 C 174.879 203.519,174.780 203.717,174.780 203.959 C 174.780 204.201,174.659 204.399,174.511 204.399 C 174.363 204.399,173.941 204.894,173.573 205.499 C 173.206 206.103,172.829 206.664,172.736 206.745 C 172.130 207.271,169.798 211.606,169.796 212.210 C 169.795 212.393,169.598 212.921,169.357 213.383 C 169.116 213.845,168.918 214.578,168.917 215.012 C 168.916 215.446,168.783 215.883,168.622 215.982 C 168.261 216.206,168.229 218.182,168.586 218.182 C 168.728 218.182,168.904 218.999,168.976 219.998 C 169.050 221.017,169.258 221.864,169.451 221.928 C 169.640 221.991,169.795 222.266,169.795 222.538 C 169.795 223.637,174.450 227.566,175.752 227.566 C 175.959 227.566,176.265 227.702,176.432 227.869 C 177.122 228.559,183.130 229.304,183.667 228.767 C 183.900 228.534,183.527 228.446,182.317 228.446 C 181.397 228.446,180.645 228.314,180.645 228.152 C 180.645 227.991,180.257 227.859,179.783 227.859 C 179.308 227.859,178.839 227.727,178.739 227.566 C 178.639 227.405,178.203 227.272,177.769 227.271 C 176.648 227.269,173.149 225.401,172.046 224.215 C 169.792 221.792,169.730 221.609,169.743 217.449 C 169.754 213.738,169.790 213.196,170.028 213.196 C 170.223 213.196,170.436 212.786,171.246 210.850 C 171.552 210.119,172.156 209.076,172.434 208.798 C 172.681 208.550,173.301 207.511,173.577 206.879 C 173.721 206.550,174.051 206.105,174.310 205.890 C 174.568 205.676,174.780 205.394,174.780 205.265 C 174.780 204.631,184.902 194.428,185.531 194.428 C 185.660 194.428,191.608 189.948,192.024 189.537 C 192.235 189.330,193.103 188.698,193.955 188.133 C 194.806 187.567,195.743 186.839,196.037 186.514 C 196.331 186.190,196.672 185.924,196.795 185.924 C 196.917 185.924,197.326 185.666,197.702 185.351 C 198.079 185.035,198.757 184.474,199.209 184.104 L 200.032 183.431 198.916 182.847 C 198.303 182.526,197.735 182.196,197.654 182.114 C 197.418 181.874,196.448 181.326,194.721 180.458 C 193.834 180.012,192.928 179.508,192.707 179.339 C 192.092 178.869,188.482 176.846,187.903 176.647 C 187.621 176.550,187.390 176.355,187.390 176.212 C 187.390 176.070,187.134 175.953,186.821 175.953 C 186.508 175.953,186.169 175.820,186.069 175.658 C 185.969 175.495,185.400 175.113,184.805 174.808 C 181.251 172.986,179.680 172.141,179.373 171.887 C 179.182 171.729,178.038 171.079,176.830 170.443 C 175.622 169.807,173.446 168.654,171.994 167.881 C 170.543 167.108,168.959 166.277,168.475 166.036 C 167.991 165.794,167.232 165.344,166.789 165.036 C 166.345 164.728,165.982 164.567,165.982 164.679 C 165.982 164.790,165.816 164.743,165.613 164.575 C 165.410 164.406,164.255 163.749,163.047 163.114 C 161.839 162.480,159.840 161.424,158.605 160.767 C 157.370 160.111,156.281 159.652,156.186 159.748 C 156.090 159.844,156.012 159.788,156.012 159.624 C 156.012 159.461,155.451 159.077,154.765 158.773 C 154.080 158.468,153.387 158.113,153.226 157.984 C 153.065 157.855,151.811 157.184,150.440 156.493 C 145.662 154.085,142.666 152.448,141.737 151.740 C 141.223 151.347,140.657 151.026,140.480 151.026 C 140.161 151.026,137.520 148.326,136.714 147.175 C 136.226 146.478,136.342 142.236,136.867 141.585 C 137.037 141.375,137.267 140.773,137.379 140.249 C 137.492 139.725,137.674 139.296,137.784 139.296 C 137.968 139.296,139.003 137.161,139.003 136.781 C 139.003 136.690,139.201 136.417,139.443 136.175 C 139.685 135.933,139.883 135.481,139.883 135.170 C 139.883 134.859,139.993 134.604,140.129 134.604 C 140.264 134.604,140.627 134.078,140.935 133.434 C 141.243 132.791,141.564 132.263,141.648 132.261 C 141.732 132.260,142.126 131.664,142.522 130.938 C 142.918 130.213,143.345 129.619,143.469 129.619 C 143.593 129.619,143.695 129.430,143.695 129.200 C 143.695 128.969,143.861 128.607,144.063 128.393 C 144.265 128.180,144.958 127.214,145.603 126.246 C 146.247 125.279,146.850 124.421,146.943 124.340 C 147.036 124.260,147.361 123.765,147.666 123.240 C 147.971 122.716,148.324 122.287,148.450 122.287 C 148.577 122.287,148.680 122.110,148.680 121.893 C 148.680 121.676,148.944 121.260,149.267 120.968 C 149.589 120.676,149.853 120.308,149.853 120.150 C 149.853 119.993,150.084 119.650,150.367 119.389 C 150.649 119.128,151.335 118.255,151.892 117.449 C 152.449 116.642,153.198 115.652,153.558 115.249 C 153.918 114.846,155.596 112.727,157.288 110.539 C 158.979 108.352,160.572 106.390,160.827 106.178 C 161.082 105.966,161.290 105.682,161.290 105.546 C 161.290 105.410,161.653 104.906,162.097 104.425 C 162.961 103.489,162.981 103.464,164.524 101.469 C 165.084 100.745,165.682 100.019,165.852 99.856 C 166.022 99.693,166.946 98.570,167.904 97.361 C 168.863 96.151,169.717 95.095,169.803 95.015 C 169.889 94.934,170.811 93.812,171.851 92.522 C 178.273 84.555,190.919 71.602,196.041 67.744 C 196.686 67.258,197.472 66.663,197.787 66.421 C 198.102 66.180,198.531 65.982,198.740 65.982 C 198.949 65.982,199.120 65.872,199.120 65.737 C 199.120 64.054,208.732 62.736,211.136 64.090 C 214.453 65.958,217.439 69.887,218.061 73.200 C 218.163 73.746,218.349 74.194,218.474 74.194 C 218.598 74.194,218.792 75.050,218.904 76.097 C 219.016 77.143,219.229 78.075,219.378 78.167 C 219.526 78.259,219.648 78.656,219.648 79.050 C 219.648 79.443,219.776 79.765,219.933 79.765 C 220.089 79.765,220.208 80.326,220.197 81.012 C 220.170 82.662,220.542 85.018,220.860 85.215 C 221.000 85.301,221.114 85.870,221.114 86.479 C 221.114 87.087,221.192 87.663,221.286 87.757 C 221.380 87.852,221.503 89.028,221.559 90.372 C 221.859 97.595,222.581 100.611,222.581 94.641 C 222.581 92.607,222.464 90.872,222.322 90.784 C 222.062 90.623,221.543 86.088,221.635 84.771 C 221.662 84.379,221.572 83.917,221.436 83.745 C 221.299 83.572,221.095 82.674,220.983 81.749 C 220.872 80.825,220.657 79.992,220.507 79.899 C 220.357 79.807,220.235 79.153,220.235 78.446 C 220.235 77.739,220.118 77.089,219.975 77.000 C 219.833 76.912,219.625 76.212,219.513 75.443 C 219.272 73.780,218.429 71.261,218.113 71.261 C 217.990 71.261,217.886 70.964,217.883 70.601 C 217.878 70.012,216.912 68.324,215.906 67.148 C 215.703 66.910,215.264 66.352,214.931 65.908 C 214.598 65.464,213.708 64.673,212.954 64.151 L 211.584 63.202 207.185 63.145 C 204.765 63.115,202.456 63.180,202.053 63.291 M198.722 90.567 C 196.065 92.952,182.505 106.764,177.053 112.641 C 175.918 113.864,176.028 114.129,177.639 114.061 C 178.405 114.028,179.363 114.135,179.768 114.298 C 180.172 114.461,181.195 114.577,182.041 114.555 C 182.886 114.534,183.578 114.615,183.578 114.736 C 183.578 114.857,184.095 114.956,184.726 114.956 C 185.358 114.956,185.919 115.081,185.973 115.235 C 186.026 115.388,187.324 115.605,188.856 115.718 C 190.389 115.830,191.708 116.010,191.789 116.118 C 192.010 116.412,195.285 117.073,196.701 117.108 C 197.386 117.126,197.947 117.242,197.947 117.368 C 197.947 117.493,198.266 117.595,198.656 117.595 C 199.046 117.595,199.409 117.724,199.462 117.881 C 199.516 118.037,200.517 118.254,201.686 118.363 C 202.856 118.471,203.812 118.672,203.812 118.810 C 203.812 118.949,204.116 119.062,204.487 119.062 C 204.858 119.062,205.308 119.208,205.488 119.388 C 206.088 119.988,206.408 119.363,206.297 117.812 C 206.236 116.967,206.104 115.088,206.003 113.636 C 205.902 112.185,205.679 110.708,205.508 110.354 C 205.337 110.000,205.268 109.182,205.354 108.536 C 205.456 107.781,205.370 107.173,205.115 106.833 C 204.773 106.378,204.718 106.752,204.723 109.523 C 204.727 111.293,204.835 112.877,204.964 113.042 C 205.455 113.672,205.589 118.544,205.110 118.361 C 204.869 118.268,203.786 118.033,202.703 117.838 C 201.620 117.643,200.667 117.396,200.587 117.291 C 200.506 117.185,199.589 117.012,198.550 116.905 C 197.511 116.799,196.576 116.575,196.472 116.408 C 196.368 116.240,195.305 116.025,194.110 115.930 C 192.914 115.834,191.798 115.649,191.630 115.517 C 191.461 115.386,190.438 115.187,189.357 115.077 C 188.275 114.966,187.390 114.761,187.390 114.622 C 187.390 114.483,186.656 114.370,185.758 114.370 C 184.860 114.370,183.867 114.231,183.550 114.061 C 183.233 113.892,181.856 113.674,180.490 113.578 C 177.924 113.397,177.557 113.153,178.519 112.269 C 178.801 112.009,180.682 110.048,182.698 107.910 C 188.714 101.531,198.308 91.980,199.485 91.198 C 200.089 90.797,200.583 90.370,200.585 90.249 C 200.588 89.847,199.275 90.071,198.722 90.567 M201.026 90.323 C 200.927 90.484,201.048 90.616,201.297 90.616 C 201.545 90.616,201.831 90.946,201.932 91.349 C 202.034 91.752,202.222 92.082,202.352 92.082 C 202.482 92.082,202.680 92.643,202.793 93.328 C 202.906 94.014,203.098 94.707,203.220 94.868 C 203.342 95.029,203.532 96.745,203.642 98.680 C 203.753 100.616,203.969 102.325,204.121 102.478 C 204.274 102.631,204.407 103.555,204.417 104.531 C 204.433 106.019,204.483 106.187,204.730 105.572 C 205.190 104.424,204.331 95.015,203.766 95.015 C 203.630 95.015,203.519 94.468,203.519 93.800 C 203.519 91.575,201.765 89.127,201.026 90.323 M222.287 100.992 C 222.287 102.040,222.419 102.979,222.581 103.079 C 222.765 103.193,222.874 102.550,222.874 101.354 C 222.874 100.306,222.742 99.367,222.581 99.267 C 222.397 99.153,222.287 99.796,222.287 100.992 M222.799 104.470 C 222.579 105.120,222.932 111.866,223.201 112.155 C 223.352 112.318,223.460 110.768,223.460 108.434 C 223.460 104.926,223.191 103.313,222.799 104.470 M222.874 117.439 C 222.874 120.695,222.926 121.076,223.351 120.913 C 223.748 120.761,223.797 120.435,223.644 118.973 C 223.543 118.007,223.460 116.444,223.460 115.500 C 223.460 114.551,223.329 113.783,223.167 113.783 C 222.987 113.783,222.874 115.197,222.874 117.439 M164.516 125.837 C 162.177 128.249,159.109 131.365,157.698 132.762 C 156.287 134.159,155.132 135.475,155.132 135.686 C 155.132 135.898,154.992 136.070,154.822 136.070 C 154.651 136.070,153.563 137.081,152.403 138.316 C 151.242 139.551,149.784 141.036,149.161 141.615 C 148.115 142.588,147.346 143.826,147.460 144.355 C 147.486 144.476,147.375 144.575,147.214 144.575 C 146.044 144.575,147.285 147.509,149.013 148.827 C 149.647 149.311,150.557 150.015,151.036 150.393 C 151.515 150.770,151.906 150.981,151.906 150.861 C 151.906 150.741,152.137 150.909,152.419 151.233 C 152.702 151.557,153.262 151.925,153.666 152.050 C 154.069 152.176,154.465 152.366,154.545 152.473 C 154.806 152.818,162.129 157.185,162.448 157.185 C 162.618 157.185,162.757 157.287,162.757 157.411 C 162.757 157.536,163.251 157.899,163.856 158.217 C 164.461 158.536,165.130 158.962,165.344 159.164 C 165.557 159.366,165.910 159.531,166.129 159.531 C 166.348 159.531,166.701 159.696,166.915 159.898 C 167.128 160.100,167.797 160.526,168.402 160.845 C 169.007 161.163,169.501 161.515,169.501 161.627 C 169.501 161.739,169.897 161.917,170.381 162.023 C 170.865 162.130,171.261 162.315,171.261 162.435 C 171.261 162.555,171.822 162.946,172.507 163.305 C 173.193 163.664,174.413 164.346,175.220 164.821 C 176.026 165.296,176.970 165.809,177.318 165.962 C 177.665 166.115,178.029 166.369,178.127 166.528 C 178.226 166.687,178.700 166.904,179.182 167.010 C 179.664 167.115,180.059 167.293,180.059 167.405 C 180.059 167.517,180.554 167.868,181.158 168.186 C 181.763 168.503,182.324 168.841,182.405 168.936 C 182.485 169.031,183.178 169.419,183.944 169.797 C 184.710 170.176,185.337 170.594,185.337 170.726 C 185.337 170.859,185.585 170.968,185.888 170.968 C 186.191 170.968,186.598 171.161,186.794 171.396 C 186.990 171.632,187.435 171.911,187.783 172.017 C 188.131 172.122,188.812 172.494,189.296 172.842 C 189.780 173.191,190.702 173.736,191.344 174.055 C 191.987 174.373,192.657 174.765,192.833 174.927 C 193.009 175.088,194.062 175.682,195.174 176.246 C 196.286 176.811,197.454 177.502,197.770 177.783 C 198.085 178.063,198.610 178.377,198.935 178.480 C 199.260 178.583,200.361 179.179,201.381 179.803 C 203.568 181.141,203.789 181.167,204.932 180.205 C 205.411 179.802,205.876 179.472,205.966 179.472 C 206.144 179.472,208.854 177.700,209.091 177.429 C 209.172 177.336,209.567 177.093,209.971 176.889 C 210.790 176.472,211.074 176.299,213.783 174.567 C 214.831 173.897,216.019 173.101,216.422 172.798 C 216.826 172.495,217.994 171.729,219.020 171.095 C 220.045 170.460,221.185 169.743,221.552 169.501 C 221.919 169.260,222.762 168.740,223.426 168.348 C 224.090 167.955,224.633 167.526,224.633 167.395 C 224.633 167.263,224.811 167.155,225.028 167.155 C 225.245 167.155,225.661 166.891,225.953 166.569 C 226.245 166.246,226.601 165.982,226.744 165.982 C 226.887 165.982,227.164 165.847,227.358 165.682 C 227.553 165.517,228.834 164.601,230.205 163.646 C 231.576 162.691,232.833 161.793,232.998 161.651 C 233.163 161.508,233.955 160.939,234.759 160.387 C 238.993 157.474,241.291 155.059,241.281 153.532 C 241.275 152.495,238.676 149.760,236.808 148.825 C 236.165 148.504,235.463 148.076,235.247 147.874 C 235.032 147.672,234.667 147.507,234.437 147.507 C 234.206 147.507,234.018 147.375,234.018 147.214 C 234.018 147.053,233.876 146.921,233.703 146.921 C 233.531 146.921,233.191 146.723,232.949 146.481 C 232.707 146.239,232.263 146.041,231.961 146.041 C 231.660 146.041,231.338 145.921,231.247 145.773 C 231.156 145.626,230.456 145.206,229.690 144.840 C 228.925 144.475,228.233 144.084,228.152 143.972 C 228.072 143.860,227.577 143.676,227.053 143.562 C 226.529 143.448,226.100 143.249,226.100 143.119 C 226.100 142.851,224.965 142.436,224.413 142.503 C 224.212 142.528,224.047 142.425,224.047 142.276 C 224.047 142.026,223.137 141.604,222.434 141.527 C 221.871 141.466,221.151 149.660,221.690 149.993 C 221.885 150.114,221.994 149.653,221.994 148.715 C 221.994 147.909,222.108 147.178,222.247 147.092 C 222.387 147.006,222.567 146.004,222.649 144.865 C 222.831 142.315,222.839 142.308,224.307 143.234 C 224.964 143.649,225.759 143.988,226.073 143.988 C 226.387 143.988,226.844 144.188,227.088 144.432 C 227.332 144.676,227.935 144.957,228.429 145.055 C 228.922 145.154,229.326 145.337,229.326 145.463 C 229.326 145.588,229.688 145.830,230.132 146.001 C 230.576 146.171,231.598 146.713,232.405 147.205 C 233.211 147.697,234.102 148.180,234.384 148.277 C 234.666 148.375,234.897 148.572,234.897 148.715 C 234.897 148.857,235.086 148.974,235.316 148.974 C 235.547 148.974,235.916 149.154,236.136 149.375 C 236.357 149.595,236.815 149.864,237.154 149.971 C 240.242 150.952,241.049 154.123,238.726 156.155 C 235.381 159.081,235.651 158.866,234.462 159.567 C 233.895 159.901,233.431 160.294,233.431 160.440 C 233.431 160.585,233.301 160.704,233.143 160.704 C 232.768 160.704,228.329 163.881,228.201 164.241 C 228.148 164.392,227.926 164.516,227.709 164.516 C 227.492 164.516,227.140 164.689,226.927 164.899 C 226.714 165.110,225.253 166.119,223.680 167.141 C 222.108 168.164,220.821 169.102,220.821 169.227 C 220.821 169.353,220.425 169.542,219.941 169.648 C 219.457 169.754,219.062 169.954,219.062 170.092 C 219.062 170.229,218.765 170.434,218.402 170.548 C 218.039 170.661,217.676 170.835,217.595 170.934 C 217.375 171.205,214.670 173.021,214.487 173.021 C 214.399 173.021,214.144 173.185,213.919 173.387 C 213.173 174.056,212.764 174.341,212.023 174.707 C 211.148 175.139,210.174 175.741,209.971 175.975 C 209.890 176.068,209.362 176.398,208.798 176.708 C 208.233 177.019,207.705 177.339,207.625 177.419 C 205.373 179.671,202.933 180.114,200.898 178.639 C 200.194 178.130,199.441 177.713,199.223 177.713 C 199.005 177.713,198.827 177.601,198.827 177.464 C 198.827 177.327,198.299 176.977,197.654 176.686 C 197.009 176.395,196.481 176.045,196.481 175.909 C 196.481 175.772,196.237 175.660,195.939 175.660 C 195.641 175.660,195.093 175.396,194.721 175.073 C 194.349 174.751,193.801 174.487,193.504 174.487 C 193.206 174.487,192.962 174.385,192.962 174.260 C 192.962 174.136,192.467 173.774,191.862 173.457 C 191.257 173.139,190.696 172.794,190.616 172.689 C 190.535 172.584,189.941 172.213,189.296 171.864 C 188.651 171.516,187.925 171.115,187.683 170.974 C 187.441 170.832,187.045 170.635,186.804 170.535 C 186.562 170.435,185.836 170.029,185.191 169.633 C 184.545 169.237,183.787 168.832,183.504 168.733 C 183.222 168.634,182.991 168.452,182.991 168.328 C 182.991 168.205,182.760 168.023,182.478 167.926 C 182.196 167.828,181.305 167.345,180.499 166.853 C 179.692 166.362,178.669 165.819,178.226 165.649 C 177.782 165.478,177.419 165.234,177.419 165.106 C 177.419 164.978,177.058 164.782,176.616 164.671 C 176.174 164.560,175.739 164.352,175.650 164.207 C 175.486 163.942,173.961 163.053,171.554 161.820 C 170.828 161.448,170.169 161.078,170.088 160.997 C 169.854 160.763,168.831 160.144,168.035 159.755 C 167.632 159.557,167.236 159.317,167.155 159.221 C 167.075 159.125,166.549 158.793,165.988 158.482 C 165.426 158.172,164.790 157.753,164.574 157.551 C 164.358 157.350,163.992 157.185,163.762 157.185 C 163.532 157.185,163.343 157.067,163.343 156.923 C 163.343 156.779,163.013 156.579,162.610 156.478 C 162.207 156.377,161.877 156.175,161.877 156.029 C 161.877 155.884,161.481 155.678,160.997 155.572 C 160.513 155.466,160.117 155.260,160.117 155.115 C 160.117 154.969,159.622 154.580,159.018 154.250 C 158.413 153.919,157.522 153.396,157.038 153.087 C 156.554 152.778,155.598 152.230,154.912 151.870 C 154.227 151.510,153.666 151.107,153.666 150.974 C 153.666 150.842,153.522 150.733,153.347 150.733 C 152.971 150.733,150.718 149.167,149.445 148.021 C 148.953 147.577,148.453 147.214,148.335 147.214 C 148.217 147.214,148.034 146.755,147.929 146.194 C 147.653 144.722,148.649 143.203,152.177 139.718 C 153.800 138.115,155.129 136.639,155.130 136.437 C 155.131 136.235,155.275 136.070,155.450 136.070 C 155.624 136.070,156.232 135.576,156.799 134.971 C 159.099 132.520,168.700 122.856,168.756 122.935 C 169.530 124.030,169.795 124.586,169.795 125.114 C 169.795 125.468,169.894 125.802,170.015 125.855 C 170.136 125.909,170.540 126.547,170.913 127.273 C 171.286 127.999,171.904 129.120,172.286 129.765 C 172.668 130.411,173.181 131.367,173.425 131.891 C 173.670 132.416,173.999 132.845,174.155 132.845 C 174.312 132.845,174.525 133.231,174.629 133.704 C 174.733 134.177,175.007 134.721,175.239 134.913 C 175.470 135.105,175.660 135.444,175.660 135.666 C 175.660 135.889,175.792 136.070,175.953 136.070 C 176.114 136.070,176.246 136.259,176.246 136.489 C 176.246 136.720,176.411 137.085,176.613 137.300 C 176.815 137.516,177.235 138.193,177.548 138.804 C 177.860 139.416,178.388 140.218,178.721 140.586 C 179.053 140.955,179.655 141.883,180.059 142.650 C 180.462 143.417,181.056 144.340,181.378 144.702 C 181.701 145.064,182.217 145.843,182.524 146.434 C 182.832 147.024,183.195 147.507,183.331 147.507 C 183.467 147.507,183.578 147.685,183.578 147.902 C 183.578 148.119,183.842 148.535,184.164 148.827 C 184.487 149.119,184.751 149.524,184.751 149.728 C 184.751 149.931,184.855 150.142,184.983 150.196 C 185.111 150.249,185.518 150.788,185.887 151.393 C 186.256 151.998,186.679 152.493,186.827 152.493 C 186.976 152.493,187.097 152.673,187.097 152.893 C 187.097 153.113,187.491 153.740,187.972 154.286 C 188.453 154.832,188.849 155.444,188.852 155.645 C 188.854 155.847,188.992 156.012,189.159 156.012 C 189.325 156.012,189.540 156.218,189.637 156.470 C 189.808 156.915,190.523 157.843,191.569 158.975 C 191.851 159.281,192.082 159.598,192.082 159.680 C 192.082 159.829,193.240 161.214,194.208 162.222 C 194.490 162.516,194.721 162.827,194.721 162.912 C 194.721 163.119,197.244 165.540,198.990 167.009 C 199.757 167.654,200.552 168.347,200.758 168.548 C 200.963 168.750,201.215 168.915,201.318 168.915 C 201.421 168.915,201.925 169.226,202.439 169.606 C 203.897 170.686,205.303 171.284,206.818 171.467 C 207.584 171.560,208.211 171.750,208.211 171.888 C 208.211 172.027,208.871 172.141,209.677 172.141 C 210.484 172.141,211.144 172.024,211.144 171.881 C 211.144 171.738,211.738 171.532,212.463 171.423 C 213.189 171.314,213.783 171.101,213.783 170.950 C 213.783 170.798,213.964 170.674,214.186 170.674 C 214.407 170.674,215.141 170.048,215.817 169.282 C 217.425 167.458,217.374 167.533,218.160 165.836 C 218.533 165.029,218.938 164.166,219.060 163.918 C 219.182 163.670,219.376 162.911,219.491 162.232 C 219.606 161.553,219.820 160.997,219.967 160.997 C 220.114 160.997,220.235 160.496,220.235 159.883 C 220.235 159.270,220.353 158.643,220.497 158.490 C 221.322 157.613,222.114 150.545,221.358 150.801 C 221.093 150.891,221.000 151.330,221.067 152.164 C 221.122 152.841,221.039 153.555,220.882 153.751 C 220.575 154.134,220.212 155.998,220.213 157.185 C 220.214 157.857,219.970 158.605,219.341 159.861 C 219.209 160.124,219.015 160.849,218.909 161.474 C 218.723 162.573,218.174 164.094,217.565 165.197 C 217.403 165.492,217.014 166.224,216.700 166.825 C 216.049 168.076,214.687 169.429,213.196 170.308 C 211.760 171.155,206.831 171.381,206.046 170.636 C 205.759 170.363,205.171 170.052,204.741 169.944 C 204.311 169.837,203.539 169.429,203.025 169.039 C 202.512 168.648,201.978 168.328,201.839 168.328 C 201.699 168.328,201.070 167.801,200.440 167.155 C 199.810 166.510,199.211 165.982,199.110 165.982 C 198.868 165.982,195.015 162.129,195.015 161.887 C 195.015 161.786,194.487 161.187,193.842 160.557 C 193.196 159.927,192.669 159.247,192.669 159.046 C 192.669 158.845,192.491 158.575,192.273 158.446 C 192.055 158.317,190.883 156.826,189.668 155.132 C 188.452 153.438,187.189 151.762,186.861 151.406 C 186.533 151.051,186.179 150.490,186.075 150.160 C 185.970 149.830,185.761 149.560,185.611 149.560 C 185.460 149.560,185.337 149.423,185.337 149.255 C 185.337 148.908,184.132 147.118,183.798 146.970 C 183.677 146.916,183.578 146.758,183.578 146.618 C 183.578 146.478,183.149 145.750,182.625 144.999 C 180.586 142.081,178.882 139.407,178.569 138.636 C 178.389 138.193,178.143 137.830,178.022 137.830 C 177.901 137.830,177.564 137.302,177.273 136.657 C 176.982 136.012,176.646 135.484,176.527 135.484 C 176.408 135.484,176.235 135.184,176.143 134.818 C 176.051 134.452,175.712 133.870,175.390 133.524 C 175.067 133.178,174.718 132.552,174.613 132.134 C 174.508 131.715,174.302 131.299,174.157 131.209 C 174.011 131.119,173.700 130.625,173.466 130.112 C 173.232 129.599,172.712 128.651,172.310 128.006 C 171.908 127.361,171.278 126.206,170.909 125.440 C 170.540 124.674,170.129 124.047,169.997 124.047 C 169.864 124.047,169.835 123.794,169.934 123.485 C 170.032 123.176,169.975 122.838,169.807 122.735 C 169.639 122.631,169.501 122.290,169.501 121.977 C 169.501 120.890,168.745 121.475,164.516 125.837 M175.953 122.710 C 175.953 123.426,176.085 124.094,176.246 124.194 C 176.408 124.293,176.544 124.664,176.550 125.017 C 176.555 125.371,176.814 126.188,177.126 126.833 C 177.438 127.478,177.697 128.146,177.703 128.317 C 177.708 128.488,177.944 128.884,178.226 129.197 C 178.508 129.510,178.750 129.897,178.764 130.059 C 178.814 130.627,179.604 132.258,179.830 132.258 C 179.956 132.258,180.059 132.496,180.059 132.786 C 180.059 133.076,180.175 133.439,180.318 133.592 C 180.461 133.746,181.063 134.782,181.658 135.895 C 182.252 137.008,183.257 138.700,183.891 139.654 C 184.525 140.609,185.044 141.443,185.044 141.508 C 185.044 141.725,186.948 144.427,187.170 144.526 C 187.291 144.580,187.390 144.746,187.390 144.895 C 187.390 145.132,189.852 148.861,191.174 150.626 C 191.431 150.970,191.840 151.550,192.082 151.914 C 192.804 153.000,198.315 159.326,199.228 160.117 C 199.694 160.521,200.407 161.147,200.813 161.510 C 201.220 161.873,201.731 162.170,201.949 162.170 C 202.167 162.170,202.346 162.292,202.346 162.441 C 202.346 162.800,204.305 163.436,204.686 163.200 C 204.851 163.098,204.985 163.155,204.985 163.326 C 204.985 163.997,206.454 163.594,207.457 162.649 L 208.504 161.661 208.504 157.223 C 208.504 154.461,208.394 152.786,208.211 152.786 C 208.031 152.786,207.918 154.246,207.918 156.579 C 207.918 161.882,206.888 163.741,204.563 162.638 C 204.021 162.381,203.432 162.170,203.255 162.170 C 203.078 162.170,202.933 162.038,202.933 161.877 C 202.933 161.716,202.761 161.584,202.552 161.584 C 201.980 161.584,197.947 158.075,197.947 157.577 C 197.947 157.497,197.353 156.838,196.628 156.112 C 195.902 155.386,195.306 154.704,195.303 154.596 C 195.301 154.487,194.912 153.960,194.439 153.424 C 193.966 152.888,193.276 152.051,192.904 151.566 C 192.533 151.080,192.064 150.505,191.862 150.289 C 191.661 150.072,191.496 149.821,191.496 149.731 C 191.496 149.496,188.933 145.782,188.411 145.261 C 188.172 145.022,187.977 144.638,187.977 144.407 C 187.977 144.177,187.845 143.988,187.683 143.988 C 187.522 143.988,187.390 143.851,187.390 143.683 C 187.390 143.378,186.393 141.859,185.704 141.116 C 185.502 140.899,185.337 140.532,185.337 140.302 C 185.337 140.071,185.235 139.883,185.111 139.883 C 184.986 139.883,184.624 139.388,184.307 138.783 C 183.990 138.178,183.564 137.578,183.361 137.449 C 183.157 137.320,182.991 137.002,182.991 136.743 C 182.991 136.484,182.661 135.840,182.258 135.311 C 181.855 134.783,181.525 134.218,181.525 134.057 C 181.525 133.711,179.708 130.126,179.422 129.909 C 179.314 129.827,179.135 129.398,179.024 128.956 C 178.913 128.514,178.715 128.152,178.584 128.152 C 178.453 128.152,178.257 127.748,178.148 127.253 C 178.039 126.758,177.766 125.999,177.540 125.567 C 177.314 125.134,177.129 124.615,177.128 124.413 C 177.127 124.212,176.994 124.047,176.833 124.047 C 176.672 124.047,176.540 123.701,176.540 123.277 C 176.540 122.495,178.115 122.396,178.581 123.148 C 178.671 123.294,179.139 123.511,179.622 123.629 C 180.104 123.747,180.565 123.930,180.645 124.034 C 180.826 124.268,182.847 125.220,183.163 125.220 C 183.289 125.220,183.962 125.484,184.658 125.806 C 185.354 126.129,186.493 126.657,187.189 126.979 C 187.885 127.302,188.619 127.566,188.819 127.566 C 189.019 127.566,189.746 127.880,190.434 128.264 C 191.123 128.649,192.105 129.055,192.617 129.168 C 193.129 129.280,193.548 129.488,193.548 129.629 C 193.548 129.770,194.010 129.972,194.575 130.078 C 195.139 130.184,195.601 130.382,195.601 130.518 C 195.601 130.654,196.063 130.852,196.628 130.958 C 197.192 131.064,197.654 131.262,197.654 131.398 C 197.654 131.534,198.116 131.732,198.680 131.838 C 199.245 131.943,199.707 132.147,199.707 132.291 C 199.707 132.434,199.971 132.551,200.293 132.551 C 200.616 132.551,201.506 132.867,202.273 133.253 C 203.039 133.639,204.326 134.265,205.132 134.646 C 205.938 135.026,206.643 135.437,206.697 135.559 C 206.837 135.875,207.332 135.517,207.330 135.100 C 207.328 134.730,205.760 133.725,205.182 133.723 C 204.993 133.722,204.195 133.395,203.408 132.996 C 202.621 132.597,201.862 132.341,201.722 132.428 C 201.581 132.515,201.466 132.477,201.466 132.345 C 201.466 132.059,199.310 131.085,198.678 131.085 C 198.438 131.085,198.240 130.953,198.240 130.792 C 198.240 130.630,198.095 130.499,197.918 130.499 C 197.577 130.499,197.139 130.320,192.624 128.331 C 192.035 128.071,191.409 127.859,191.231 127.859 C 191.054 127.859,190.909 127.712,190.909 127.532 C 190.909 127.349,190.650 127.272,190.323 127.358 C 190.000 127.442,189.736 127.423,189.736 127.314 C 189.736 127.120,187.583 126.100,187.172 126.100 C 187.055 126.100,186.231 125.752,185.341 125.327 C 184.452 124.902,183.328 124.389,182.845 124.188 C 182.361 123.988,181.305 123.515,180.499 123.138 C 179.692 122.762,178.900 122.445,178.739 122.434 C 178.578 122.423,177.997 122.188,177.448 121.911 C 176.042 121.202,175.953 121.250,175.953 122.710 M223.203 123.730 C 222.606 124.101,223.024 124.541,224.178 124.758 C 224.737 124.863,225.564 125.141,226.014 125.376 C 226.464 125.611,227.196 125.804,227.639 125.805 C 228.083 125.806,228.446 125.938,228.446 126.100 C 228.446 126.261,228.677 126.394,228.959 126.395 C 229.241 126.396,229.850 126.594,230.312 126.835 C 230.774 127.076,231.375 127.273,231.646 127.273 C 231.918 127.273,232.299 127.431,232.493 127.625 C 232.686 127.818,232.845 127.868,232.845 127.735 C 232.845 127.603,233.010 127.624,233.211 127.783 C 233.655 128.133,235.197 128.564,235.704 128.481 C 235.905 128.447,236.070 128.558,236.070 128.726 C 236.070 128.895,236.327 129.032,236.640 129.032 C 236.953 129.032,237.281 129.149,237.369 129.292 C 237.458 129.435,237.988 129.638,238.547 129.743 C 239.107 129.848,239.933 130.126,240.384 130.361 C 240.834 130.596,241.565 130.789,242.009 130.790 C 242.452 130.791,242.816 130.891,242.816 131.012 C 242.818 131.276,245.427 132.383,245.612 132.198 C 245.945 131.865,244.473 130.792,243.684 130.792 C 243.206 130.792,242.815 130.670,242.815 130.522 C 242.815 130.373,242.421 130.165,241.939 130.059 C 241.457 129.954,240.987 129.745,240.895 129.596 C 240.803 129.447,240.439 129.325,240.085 129.324 C 239.732 129.323,239.062 129.124,238.598 128.881 C 238.133 128.639,237.209 128.355,236.545 128.252 C 235.881 128.148,235.271 127.985,235.191 127.888 C 234.887 127.525,233.713 126.979,233.215 126.970 C 232.931 126.964,232.170 126.705,231.525 126.393 C 230.880 126.081,229.989 125.822,229.545 125.816 C 229.102 125.811,228.739 125.674,228.739 125.513 C 228.739 125.352,228.528 125.220,228.270 125.220 C 228.012 125.220,227.385 125.034,226.877 124.806 C 226.369 124.578,225.468 124.310,224.875 124.210 C 224.282 124.110,223.754 123.905,223.702 123.754 C 223.647 123.596,223.435 123.586,223.203 123.730 M246.041 132.212 C 246.041 132.562,250.873 134.897,251.597 134.897 C 251.767 134.897,251.906 135.019,251.906 135.167 C 251.906 135.316,252.302 135.524,252.786 135.630 C 253.270 135.737,253.666 135.945,253.666 136.094 C 253.666 136.242,253.847 136.364,254.070 136.364 C 254.292 136.364,254.638 136.562,254.839 136.804 C 255.039 137.045,255.372 137.243,255.578 137.243 C 256.289 137.243,260.383 140.205,262.268 142.082 C 263.479 143.289,265.079 145.847,265.294 146.923 C 265.392 147.412,265.587 147.884,265.727 147.971 C 265.867 148.057,265.982 148.451,265.982 148.844 C 265.982 149.238,266.114 149.560,266.276 149.560 C 267.722 149.560,265.143 143.617,262.649 141.202 C 261.106 139.709,258.942 138.123,258.447 138.123 C 258.236 138.123,258.065 137.994,258.065 137.835 C 258.065 137.677,257.735 137.465,257.331 137.364 C 256.928 137.263,256.598 137.074,256.598 136.945 C 256.598 136.815,256.037 136.420,255.352 136.067 C 254.666 135.713,253.512 135.109,252.786 134.724 C 252.060 134.339,251.301 134.022,251.100 134.021 C 250.898 134.019,250.733 133.896,250.733 133.748 C 250.733 133.599,250.304 133.385,249.780 133.271 C 249.256 133.157,248.761 132.982,248.680 132.881 C 248.117 132.177,246.041 131.651,246.041 132.212 M207.062 140.396 C 207.069 143.239,207.191 144.644,207.474 145.161 C 208.061 146.233,208.311 145.363,208.081 143.047 C 207.981 142.033,207.827 140.114,207.740 138.783 C 207.488 134.936,207.050 135.977,207.062 140.396 M207.701 148.950 C 207.750 151.081,207.882 152.042,208.138 152.127 C 208.706 152.315,208.643 147.213,208.067 146.464 C 207.672 145.950,207.637 146.191,207.701 148.950 M265.982 153.192 C 265.982 153.577,265.785 154.270,265.544 154.732 C 265.303 155.194,265.105 155.858,265.104 156.207 C 265.103 156.557,264.998 156.887,264.871 156.940 C 264.744 156.994,264.117 158.089,263.478 159.373 C 262.839 160.657,262.092 161.977,261.816 162.305 C 260.401 163.997,254.943 169.487,254.670 169.494 C 254.496 169.498,254.035 169.849,253.643 170.273 C 252.307 171.723,247.406 175.524,243.581 178.076 C 243.276 178.279,242.682 178.714,242.261 179.043 C 241.840 179.371,240.704 180.163,239.736 180.802 C 238.768 181.442,237.933 182.064,237.879 182.185 C 237.825 182.306,237.667 182.405,237.527 182.405 C 237.111 182.405,234.604 184.183,234.604 184.478 C 234.604 184.628,234.442 184.751,234.244 184.751 C 233.895 184.751,227.522 188.922,226.739 189.663 C 226.525 189.864,226.211 190.029,226.040 190.029 C 225.869 190.029,225.492 190.302,225.203 190.635 C 224.914 190.968,224.574 191.214,224.446 191.182 C 223.025 190.821,224.066 192.946,225.536 193.405 C 225.927 193.528,226.312 193.713,226.393 193.817 C 226.474 193.922,227.199 194.402,228.006 194.883 C 228.812 195.365,229.736 195.920,230.059 196.117 C 230.381 196.314,231.173 196.758,231.818 197.104 C 232.463 197.450,233.057 197.814,233.138 197.913 C 233.218 198.013,233.779 198.346,234.384 198.653 C 234.989 198.961,235.484 199.332,235.484 199.477 C 235.484 199.622,235.614 199.661,235.773 199.562 C 235.933 199.464,236.359 199.659,236.721 199.996 C 237.082 200.333,237.678 200.684,238.044 200.776 C 238.410 200.868,238.710 201.052,238.710 201.184 C 238.710 201.317,239.304 201.722,240.029 202.084 C 240.755 202.447,241.349 202.836,241.349 202.950 C 241.349 203.064,241.580 203.241,241.862 203.343 C 243.303 203.864,246.334 206.674,246.334 207.489 C 246.334 207.725,246.466 207.918,246.628 207.918 C 247.090 207.918,246.969 210.664,246.461 211.682 C 245.956 212.695,244.158 214.231,242.449 215.110 C 241.844 215.421,241.349 215.761,241.349 215.865 C 241.349 215.969,240.821 216.138,240.176 216.242 C 239.531 216.345,239.003 216.543,239.003 216.682 C 239.003 216.822,238.575 217.021,238.052 217.126 C 235.740 217.588,234.726 218.475,236.510 218.475 C 237.075 218.475,237.537 218.354,237.537 218.205 C 237.537 218.057,237.941 217.846,238.436 217.738 C 238.931 217.629,239.690 217.355,240.122 217.130 C 240.555 216.904,241.074 216.718,241.276 216.717 C 241.477 216.716,241.642 216.584,241.642 216.422 C 241.642 216.261,241.886 216.129,242.184 216.129 C 242.482 216.129,243.025 215.869,243.392 215.551 C 243.758 215.233,244.306 214.895,244.610 214.798 C 244.913 214.702,245.161 214.437,245.161 214.209 C 245.161 213.981,245.491 213.711,245.894 213.610 C 246.298 213.509,246.628 213.252,246.628 213.039 C 246.628 212.826,246.806 212.474,247.023 212.256 C 248.190 211.089,248.188 207.968,247.020 206.999 C 246.804 206.820,246.628 206.541,246.628 206.379 C 246.628 205.857,243.806 203.333,242.081 202.312 C 241.158 201.766,239.923 201.020,239.336 200.653 C 238.750 200.287,237.940 199.828,237.537 199.633 C 237.133 199.438,236.738 199.192,236.657 199.085 C 236.576 198.978,235.916 198.585,235.191 198.211 C 234.465 197.837,233.697 197.360,233.483 197.152 C 233.270 196.944,232.907 196.774,232.677 196.774 C 232.447 196.774,232.258 196.651,232.258 196.501 C 232.258 196.350,231.961 196.133,231.598 196.019 C 231.235 195.904,230.543 195.532,230.059 195.192 C 228.652 194.203,228.041 193.836,227.493 193.652 C 227.210 193.558,226.979 193.378,226.979 193.253 C 226.979 193.128,226.618 192.935,226.176 192.824 C 224.962 192.519,224.578 191.202,225.704 191.202 C 226.090 191.202,226.332 191.049,227.356 190.160 C 227.552 189.989,227.944 189.762,228.226 189.656 C 228.508 189.549,228.739 189.325,228.739 189.159 C 228.739 188.992,228.928 188.856,229.158 188.856 C 229.388 188.856,229.754 188.691,229.972 188.490 C 230.645 187.865,233.141 186.217,233.415 186.217 C 233.558 186.217,233.719 186.118,233.773 185.997 C 233.827 185.876,234.861 185.124,236.070 184.325 C 237.280 183.526,238.314 182.767,238.368 182.639 C 238.421 182.510,238.632 182.405,238.835 182.405 C 239.039 182.405,239.444 182.141,239.736 181.818 C 240.028 181.496,240.444 181.232,240.661 181.232 C 240.878 181.232,241.061 181.133,241.068 181.012 C 241.076 180.891,241.997 180.198,243.116 179.472 C 244.235 178.746,245.153 177.988,245.156 177.786 C 245.159 177.584,245.429 177.419,245.757 177.419 C 246.085 177.419,246.429 177.221,246.522 176.979 C 246.614 176.738,246.812 176.540,246.960 176.540 C 247.334 176.540,250.147 174.414,250.147 174.131 C 250.147 174.004,250.296 173.900,250.480 173.900 C 250.663 173.900,251.118 173.570,251.492 173.167 C 251.866 172.764,252.300 172.434,252.458 172.434 C 252.615 172.434,253.206 172.005,253.770 171.481 C 254.334 170.957,255.620 169.802,256.626 168.915 C 257.633 168.028,258.797 166.921,259.213 166.456 C 259.630 165.990,260.334 165.241,260.777 164.792 C 261.221 164.342,261.584 163.833,261.584 163.659 C 261.584 163.485,261.690 163.343,261.820 163.343 C 262.177 163.343,263.893 160.807,264.103 159.970 C 264.204 159.567,264.394 159.238,264.525 159.238 C 264.656 159.238,264.856 158.809,264.970 158.284 C 265.083 157.760,265.266 157.265,265.375 157.185 C 266.244 156.542,267.022 152.493,266.276 152.493 C 266.114 152.493,265.982 152.807,265.982 153.192 M216.276 196.649 C 214.824 197.688,213.339 198.665,212.977 198.822 C 212.614 198.978,212.317 199.209,212.317 199.335 C 212.317 199.461,211.918 199.740,211.430 199.956 C 210.943 200.172,210.379 200.501,210.176 200.687 C 209.474 201.335,207.940 202.346,207.661 202.346 C 207.507 202.346,207.336 202.445,207.283 202.566 C 207.152 202.859,204.780 204.692,204.532 204.692 C 204.364 204.692,202.642 205.962,201.557 206.887 C 201.365 207.051,200.728 207.515,200.142 207.918 C 199.556 208.321,198.591 209.079,197.999 209.603 C 197.406 210.126,196.822 210.555,196.701 210.556 C 196.580 210.557,196.481 210.821,196.481 211.144 C 196.481 211.728,196.793 211.906,197.165 211.535 C 197.273 211.427,198.205 211.370,199.238 211.407 C 200.324 211.447,201.196 211.344,201.308 211.163 C 201.418 210.984,202.498 210.850,203.830 210.850 C 205.299 210.850,206.158 210.734,206.158 210.534 C 206.158 210.180,199.402 210.309,198.387 210.682 C 197.722 210.927,197.899 210.752,199.695 209.384 C 200.224 208.981,200.869 208.420,201.127 208.138 C 201.385 207.856,201.765 207.625,201.971 207.625 C 202.177 207.625,202.348 207.526,202.349 207.405 C 202.351 207.284,203.275 206.530,204.402 205.730 C 205.529 204.930,206.452 204.171,206.452 204.044 C 206.452 203.916,206.640 203.812,206.871 203.812 C 207.101 203.812,207.470 203.632,207.691 203.411 C 207.911 203.190,208.383 202.918,208.738 202.805 C 209.093 202.692,209.384 202.477,209.384 202.326 C 209.384 202.176,209.568 202.053,209.793 202.053 C 210.017 202.053,210.277 201.855,210.370 201.613 C 210.463 201.371,210.730 201.173,210.963 201.173 C 211.197 201.173,211.432 201.074,211.486 200.953 C 211.540 200.832,212.375 200.205,213.343 199.560 C 214.311 198.915,215.147 198.288,215.200 198.167 C 215.254 198.046,215.457 197.947,215.651 197.947 C 215.846 197.947,216.461 197.557,217.020 197.079 C 217.578 196.602,218.189 196.206,218.377 196.200 C 218.565 196.193,218.770 196.037,218.831 195.853 C 218.943 195.517,221.453 196.897,221.652 197.405 C 221.706 197.542,221.917 197.654,222.120 197.654 C 222.324 197.654,222.795 197.918,223.167 198.240 C 223.539 198.563,224.014 198.827,224.223 198.827 C 224.432 198.827,224.927 199.124,225.323 199.487 C 225.719 199.850,226.550 200.411,227.171 200.733 C 227.791 201.056,228.628 201.617,229.029 201.979 C 229.431 202.342,229.840 202.639,229.937 202.639 C 230.035 202.639,230.387 202.870,230.720 203.152 C 231.052 203.435,231.621 203.864,231.984 204.106 C 232.904 204.719,234.606 206.165,235.434 207.038 L 236.130 207.771 232.508 207.918 C 229.001 208.060,228.152 208.235,228.152 208.815 C 228.152 209.197,231.592 209.164,231.830 208.779 C 231.942 208.597,232.835 208.497,233.973 208.539 C 235.941 208.610,237.243 208.370,237.243 207.936 C 237.243 207.594,234.563 204.987,233.154 203.959 C 232.491 203.475,231.784 202.947,231.582 202.786 C 230.571 201.977,229.318 201.173,229.069 201.173 C 228.914 201.173,228.744 201.069,228.690 200.941 C 228.590 200.703,225.885 198.827,225.643 198.827 C 225.569 198.827,224.962 198.431,224.294 197.947 C 223.626 197.463,222.912 197.067,222.708 197.067 C 222.503 197.067,222.292 196.968,222.239 196.848 C 222.107 196.553,219.394 194.716,219.126 194.741 C 219.010 194.752,217.727 195.611,216.276 196.649 M223.591 208.823 C 223.019 209.749,226.287 209.827,227.487 208.917 C 227.937 208.576,227.724 208.522,225.897 208.514 C 224.685 208.508,223.705 208.640,223.591 208.823 M219.385 209.066 C 219.113 209.238,219.555 209.365,220.705 209.443 C 222.559 209.570,223.167 209.475,223.167 209.060 C 223.167 208.721,219.922 208.726,219.385 209.066 M210.850 209.677 C 210.850 209.847,209.925 209.971,208.660 209.971 C 206.761 209.971,206.494 210.034,206.652 210.446 C 206.803 210.840,207.093 210.885,208.329 210.708 C 209.151 210.590,210.535 210.517,211.404 210.545 C 212.981 210.595,214.663 210.129,214.663 209.642 C 214.663 209.500,213.805 209.384,212.757 209.384 C 211.681 209.384,210.850 209.512,210.850 209.677 M214.956 209.677 C 214.956 209.843,215.793 209.971,216.879 209.971 C 218.087 209.971,218.735 209.862,218.622 209.677 C 218.522 209.516,217.656 209.384,216.698 209.384 C 215.732 209.384,214.956 209.515,214.956 209.677 M234.311 218.451 C 232.487 219.422,231.955 219.649,231.480 219.658 C 230.947 219.667,228.285 220.520,227.713 220.864 C 227.551 220.962,226.661 221.133,225.733 221.245 C 224.806 221.358,224.047 221.559,224.047 221.693 C 224.047 221.827,223.255 222.028,222.287 222.141 C 221.319 222.253,220.453 222.464,220.363 222.610 C 220.274 222.755,219.886 222.874,219.501 222.874 C 219.117 222.874,218.720 223.007,218.620 223.170 C 218.519 223.333,218.082 223.464,217.649 223.460 C 216.417 223.450,214.674 223.792,214.496 224.079 C 214.407 224.223,214.035 224.340,213.668 224.340 C 213.301 224.340,212.917 224.425,212.814 224.528 C 212.710 224.631,212.128 224.746,211.518 224.785 C 210.278 224.863,207.786 225.412,206.891 225.805 C 206.569 225.946,205.416 226.147,204.329 226.250 C 203.242 226.354,202.283 226.551,202.199 226.688 C 202.114 226.824,200.856 227.029,199.403 227.143 C 197.950 227.256,196.691 227.464,196.604 227.604 C 196.517 227.745,195.794 227.859,194.997 227.859 C 193.715 227.859,193.548 227.931,193.548 228.482 C 193.548 229.034,193.658 229.081,194.501 228.892 C 196.284 228.492,200.142 227.827,201.613 227.666 C 202.419 227.578,203.211 227.404,203.372 227.280 C 203.534 227.155,204.326 226.958,205.132 226.842 C 205.938 226.726,206.730 226.530,206.891 226.406 C 207.053 226.282,208.099 226.099,209.216 225.999 C 210.334 225.900,211.324 225.700,211.416 225.555 C 211.508 225.409,212.436 225.192,213.478 225.073 C 214.520 224.953,215.576 224.749,215.824 224.619 C 216.369 224.335,220.184 223.459,220.870 223.460 C 221.139 223.460,221.403 223.330,221.457 223.170 C 221.510 223.010,222.379 222.794,223.387 222.688 C 224.395 222.583,225.220 222.399,225.220 222.279 C 225.220 222.159,225.814 221.972,226.540 221.863 C 227.265 221.754,227.859 221.541,227.859 221.390 C 227.859 221.238,228.354 221.114,228.959 221.113 C 229.564 221.112,230.413 220.926,230.845 220.700 C 231.278 220.475,232.070 220.194,232.605 220.077 C 233.996 219.771,235.401 218.959,235.261 218.540 C 235.126 218.134,234.939 218.116,234.311 218.451 M190.326 228.396 C 190.161 228.451,190.100 228.617,190.191 228.764 C 190.406 229.111,193.255 229.115,193.255 228.769 C 193.255 228.506,190.897 228.206,190.326 228.396 M188.563 228.739 C 189.137 229.110,189.736 229.110,189.736 228.739 C 189.736 228.578,189.373 228.448,188.930 228.450 C 188.301 228.454,188.220 228.517,188.563 228.739 " stroke="none" fill="#ffff00" fill-rule="evenodd"></path></g></svg>